<?xml version="1.0" encoding="UTF-8"?>
<svg xmlns="http://www.w3.org/2000/svg" xmlns:xlink="http://www.w3.org/1999/xlink" width="50px" height="50px" viewBox="0 0 50 50" version="1.1">
<g id="surface1">
<path style=" stroke:none;fill-rule:nonzero;fill:rgb(0%,0%,0%);fill-opacity:1;" d="M 32.476562 25 L 48.453125 9.023438 C 50.519531 6.957031 50.519531 3.613281 48.453125 1.546875 C 46.390625 -0.515625 43.042969 -0.515625 40.980469 1.546875 L 25 17.527344 L 9.023438 1.550781 C 6.957031 -0.515625 3.613281 -0.515625 1.550781 1.550781 C -0.515625 3.613281 -0.515625 6.960938 1.550781 9.023438 L 17.527344 25.003906 L 1.550781 40.980469 C -0.515625 43.046875 -0.515625 46.390625 1.550781 48.457031 C 3.613281 50.519531 6.957031 50.519531 9.023438 48.457031 L 25 32.476562 L 40.980469 48.457031 C 43.042969 50.519531 46.390625 50.519531 48.453125 48.457031 C 50.519531 46.390625 50.519531 43.046875 48.453125 40.980469 Z M 32.476562 25 "/>
</g>
</svg>
